<mxfile host="app.diagrams.net" agent="Mozilla/5.0 (Windows NT 10.0; Win64; x64) AppleWebKit/537.36 (KHTML, like Gecko) Chrome/131.0.0.0 Safari/537.36 Edg/131.0.0.0" version="24.8.6">
  <diagram name="Page-1" id="6zGvOi3wNpnGUGQqcl95">
    <mxGraphModel dx="731" dy="2801" grid="1" gridSize="10" guides="1" tooltips="1" connect="1" arrows="1" fold="1" page="1" pageScale="1" pageWidth="1920" pageHeight="1200" math="0" shadow="0">
      <root>
        <mxCell id="0" />
        <mxCell id="1" parent="0" />
        <mxCell id="hn_gfa2BVQ2jHDe-1uTE-12" value="" style="rounded=1;whiteSpace=wrap;html=1;fillColor=#d5e8d4;strokeColor=#82b366;" parent="1" vertex="1">
          <mxGeometry x="1028" y="-2320" width="252" height="210" as="geometry" />
        </mxCell>
        <mxCell id="uL5L442wFs0M8TUxu72s-83" style="edgeStyle=orthogonalEdgeStyle;rounded=0;orthogonalLoop=1;jettySize=auto;html=1;fillColor=#dae8fc;strokeColor=#6c8ebf;" parent="1" source="uL5L442wFs0M8TUxu72s-75" edge="1">
          <mxGeometry relative="1" as="geometry">
            <Array as="points">
              <mxPoint x="830" y="-2020" />
            </Array>
            <mxPoint x="830" y="-2020" as="targetPoint" />
          </mxGeometry>
        </mxCell>
        <mxCell id="hn_gfa2BVQ2jHDe-1uTE-17" value="Act" style="edgeLabel;html=1;align=center;verticalAlign=middle;resizable=0;points=[];" parent="uL5L442wFs0M8TUxu72s-83" vertex="1" connectable="0">
          <mxGeometry x="-0.2072" relative="1" as="geometry">
            <mxPoint y="-10" as="offset" />
          </mxGeometry>
        </mxCell>
        <mxCell id="uL5L442wFs0M8TUxu72s-75" value="" style="rounded=1;whiteSpace=wrap;html=1;fillColor=#e1d5e7;strokeColor=#9673a6;" parent="1" vertex="1">
          <mxGeometry x="860" y="-2060" width="420" height="80" as="geometry" />
        </mxCell>
        <mxCell id="uL5L442wFs0M8TUxu72s-1" value="" style="rounded=1;whiteSpace=wrap;html=1;fillColor=#dae8fc;strokeColor=none;" parent="1" vertex="1">
          <mxGeometry x="240" y="-2088" width="240.91" height="250" as="geometry" />
        </mxCell>
        <mxCell id="uL5L442wFs0M8TUxu72s-2" style="edgeStyle=orthogonalEdgeStyle;rounded=0;orthogonalLoop=1;jettySize=auto;html=1;entryX=0.5;entryY=0;entryDx=0;entryDy=0;" parent="1" source="uL5L442wFs0M8TUxu72s-3" target="uL5L442wFs0M8TUxu72s-8" edge="1">
          <mxGeometry relative="1" as="geometry">
            <mxPoint x="410.9100000000001" y="-2250" as="targetPoint" />
          </mxGeometry>
        </mxCell>
        <mxCell id="uL5L442wFs0M8TUxu72s-3" value="Start" style="rounded=1;whiteSpace=wrap;html=1;fontSize=12;glass=0;strokeWidth=1;shadow=0;" parent="1" vertex="1">
          <mxGeometry x="372.1600000000001" y="-2252" width="77.5" height="40" as="geometry" />
        </mxCell>
        <mxCell id="uL5L442wFs0M8TUxu72s-4" style="edgeStyle=orthogonalEdgeStyle;rounded=0;orthogonalLoop=1;jettySize=auto;html=1;entryX=0.5;entryY=0;entryDx=0;entryDy=0;" parent="1" source="uL5L442wFs0M8TUxu72s-8" target="uL5L442wFs0M8TUxu72s-13" edge="1">
          <mxGeometry relative="1" as="geometry" />
        </mxCell>
        <mxCell id="uL5L442wFs0M8TUxu72s-5" value="No" style="edgeLabel;html=1;align=center;verticalAlign=middle;resizable=0;points=[];" parent="uL5L442wFs0M8TUxu72s-4" vertex="1" connectable="0">
          <mxGeometry x="-0.225" y="-1" relative="1" as="geometry">
            <mxPoint x="-9" y="-2" as="offset" />
          </mxGeometry>
        </mxCell>
        <mxCell id="uL5L442wFs0M8TUxu72s-6" style="edgeStyle=orthogonalEdgeStyle;rounded=0;orthogonalLoop=1;jettySize=auto;html=1;entryX=1;entryY=0.5;entryDx=0;entryDy=0;" parent="1" source="uL5L442wFs0M8TUxu72s-8" target="uL5L442wFs0M8TUxu72s-24" edge="1">
          <mxGeometry relative="1" as="geometry" />
        </mxCell>
        <mxCell id="uL5L442wFs0M8TUxu72s-7" value="Yes" style="edgeLabel;html=1;align=center;verticalAlign=middle;resizable=0;points=[];" parent="uL5L442wFs0M8TUxu72s-6" vertex="1" connectable="0">
          <mxGeometry x="0.0133" relative="1" as="geometry">
            <mxPoint x="1" y="-11" as="offset" />
          </mxGeometry>
        </mxCell>
        <mxCell id="uL5L442wFs0M8TUxu72s-8" value="Obstacle &lt;br&gt;Detection?" style="rhombus;whiteSpace=wrap;html=1;" parent="1" vertex="1">
          <mxGeometry x="340.9100000000001" y="-2184" width="140" height="70" as="geometry" />
        </mxCell>
        <mxCell id="uL5L442wFs0M8TUxu72s-9" style="edgeStyle=orthogonalEdgeStyle;rounded=0;orthogonalLoop=1;jettySize=auto;html=1;entryX=0.5;entryY=0;entryDx=0;entryDy=0;" parent="1" source="uL5L442wFs0M8TUxu72s-13" target="uL5L442wFs0M8TUxu72s-17" edge="1">
          <mxGeometry relative="1" as="geometry">
            <Array as="points">
              <mxPoint x="340" y="-2039" />
              <mxPoint x="316" y="-2040" />
            </Array>
          </mxGeometry>
        </mxCell>
        <mxCell id="uL5L442wFs0M8TUxu72s-10" value="No" style="edgeLabel;html=1;align=center;verticalAlign=middle;resizable=0;points=[];" parent="uL5L442wFs0M8TUxu72s-9" vertex="1" connectable="0">
          <mxGeometry x="-0.1245" y="2" relative="1" as="geometry">
            <mxPoint x="13" y="-13" as="offset" />
          </mxGeometry>
        </mxCell>
        <mxCell id="uL5L442wFs0M8TUxu72s-11" style="edgeStyle=orthogonalEdgeStyle;rounded=0;orthogonalLoop=1;jettySize=auto;html=1;entryX=0.5;entryY=0;entryDx=0;entryDy=0;exitX=0.5;exitY=1;exitDx=0;exitDy=0;" parent="1" source="uL5L442wFs0M8TUxu72s-13" target="uL5L442wFs0M8TUxu72s-26" edge="1">
          <mxGeometry relative="1" as="geometry">
            <Array as="points">
              <mxPoint x="428" y="-2004" />
            </Array>
          </mxGeometry>
        </mxCell>
        <mxCell id="uL5L442wFs0M8TUxu72s-12" value="Yes" style="edgeLabel;html=1;align=center;verticalAlign=middle;resizable=0;points=[];" parent="uL5L442wFs0M8TUxu72s-11" vertex="1" connectable="0">
          <mxGeometry x="-0.42" y="6" relative="1" as="geometry">
            <mxPoint x="-23" y="-1" as="offset" />
          </mxGeometry>
        </mxCell>
        <mxCell id="uL5L442wFs0M8TUxu72s-13" value="Plume&lt;br&gt;&amp;nbsp;Detected&lt;br&gt;Visually?" style="rhombus;whiteSpace=wrap;html=1;" parent="1" vertex="1">
          <mxGeometry x="340.9100000000001" y="-2074" width="140" height="70" as="geometry" />
        </mxCell>
        <mxCell id="uL5L442wFs0M8TUxu72s-14" value="Yes" style="edgeStyle=orthogonalEdgeStyle;rounded=0;orthogonalLoop=1;jettySize=auto;html=1;entryX=0.5;entryY=0;entryDx=0;entryDy=0;exitX=1;exitY=0.5;exitDx=0;exitDy=0;" parent="1" source="uL5L442wFs0M8TUxu72s-17" target="uL5L442wFs0M8TUxu72s-28" edge="1">
          <mxGeometry x="0.1555" y="-10" relative="1" as="geometry">
            <mxPoint as="offset" />
            <Array as="points">
              <mxPoint x="386" y="-1930" />
              <mxPoint x="344" y="-1930" />
            </Array>
          </mxGeometry>
        </mxCell>
        <mxCell id="uL5L442wFs0M8TUxu72s-17" value="Plume &lt;br&gt;Chemical&lt;br&gt;Detected?" style="rhombus;whiteSpace=wrap;html=1;" parent="1" vertex="1">
          <mxGeometry x="245.91000000000008" y="-2010" width="140" height="70" as="geometry" />
        </mxCell>
        <mxCell id="uL5L442wFs0M8TUxu72s-18" style="edgeStyle=orthogonalEdgeStyle;rounded=0;orthogonalLoop=1;jettySize=auto;html=1;entryX=0.5;entryY=0;entryDx=0;entryDy=0;" parent="1" source="uL5L442wFs0M8TUxu72s-22" target="uL5L442wFs0M8TUxu72s-31" edge="1">
          <mxGeometry relative="1" as="geometry">
            <mxPoint x="660.9099999999999" y="-1900" as="targetPoint" />
          </mxGeometry>
        </mxCell>
        <mxCell id="uL5L442wFs0M8TUxu72s-19" value="Yes" style="edgeLabel;html=1;align=center;verticalAlign=middle;resizable=0;points=[];" parent="uL5L442wFs0M8TUxu72s-18" vertex="1" connectable="0">
          <mxGeometry x="-0.3435" relative="1" as="geometry">
            <mxPoint x="10" y="-4" as="offset" />
          </mxGeometry>
        </mxCell>
        <mxCell id="uL5L442wFs0M8TUxu72s-20" style="edgeStyle=orthogonalEdgeStyle;rounded=0;orthogonalLoop=1;jettySize=auto;html=1;exitX=0;exitY=0.5;exitDx=0;exitDy=0;" parent="1" source="uL5L442wFs0M8TUxu72s-22" edge="1">
          <mxGeometry relative="1" as="geometry">
            <Array as="points">
              <mxPoint x="220" y="-1785" />
              <mxPoint x="220" y="-2198" />
            </Array>
            <mxPoint x="250.91000000000008" y="-1785" as="sourcePoint" />
            <mxPoint x="409.9100000000001" y="-2198" as="targetPoint" />
          </mxGeometry>
        </mxCell>
        <mxCell id="uL5L442wFs0M8TUxu72s-21" value="No" style="edgeLabel;html=1;align=center;verticalAlign=middle;resizable=0;points=[];" parent="uL5L442wFs0M8TUxu72s-20" vertex="1" connectable="0">
          <mxGeometry x="-0.9232" relative="1" as="geometry">
            <mxPoint x="7" y="-10" as="offset" />
          </mxGeometry>
        </mxCell>
        <mxCell id="uL5L442wFs0M8TUxu72s-22" value="Source&lt;br&gt;Conformation?" style="rhombus;whiteSpace=wrap;html=1;" parent="1" vertex="1">
          <mxGeometry x="340.9100000000001" y="-1820" width="140" height="70" as="geometry" />
        </mxCell>
        <mxCell id="uL5L442wFs0M8TUxu72s-23" style="edgeStyle=orthogonalEdgeStyle;rounded=0;orthogonalLoop=1;jettySize=auto;html=1;exitX=0.5;exitY=0;exitDx=0;exitDy=0;" parent="1" source="uL5L442wFs0M8TUxu72s-24" edge="1">
          <mxGeometry relative="1" as="geometry">
            <mxPoint x="409.9100000000001" y="-2198" as="targetPoint" />
            <Array as="points">
              <mxPoint x="274" y="-2198" />
            </Array>
            <mxPoint x="279.9100000000001" y="-2169" as="sourcePoint" />
          </mxGeometry>
        </mxCell>
        <mxCell id="uL5L442wFs0M8TUxu72s-24" value="Obstacle-Avoid" style="rounded=0;whiteSpace=wrap;html=1;" parent="1" vertex="1">
          <mxGeometry x="225.91000000000008" y="-2169" width="96" height="40" as="geometry" />
        </mxCell>
        <mxCell id="uL5L442wFs0M8TUxu72s-25" style="edgeStyle=orthogonalEdgeStyle;rounded=0;orthogonalLoop=1;jettySize=auto;html=1;exitX=0.5;exitY=1;exitDx=0;exitDy=0;entryX=0.5;entryY=0;entryDx=0;entryDy=0;" parent="1" source="uL5L442wFs0M8TUxu72s-26" target="uL5L442wFs0M8TUxu72s-22" edge="1">
          <mxGeometry relative="1" as="geometry">
            <Array as="points">
              <mxPoint x="410.9100000000001" y="-1850" />
              <mxPoint x="410.9100000000001" y="-1850" />
            </Array>
          </mxGeometry>
        </mxCell>
        <mxCell id="uL5L442wFs0M8TUxu72s-26" value="Vision-based Actions (1-3)" style="rounded=0;whiteSpace=wrap;html=1;" parent="1" vertex="1">
          <mxGeometry x="379.9100000000001" y="-1912" width="96" height="40" as="geometry" />
        </mxCell>
        <mxCell id="uL5L442wFs0M8TUxu72s-27" style="edgeStyle=orthogonalEdgeStyle;rounded=0;orthogonalLoop=1;jettySize=auto;html=1;entryX=0.5;entryY=0;entryDx=0;entryDy=0;exitX=0.5;exitY=1;exitDx=0;exitDy=0;" parent="1" source="uL5L442wFs0M8TUxu72s-28" target="uL5L442wFs0M8TUxu72s-22" edge="1">
          <mxGeometry relative="1" as="geometry">
            <Array as="points">
              <mxPoint x="344" y="-1850" />
              <mxPoint x="411" y="-1850" />
            </Array>
          </mxGeometry>
        </mxCell>
        <mxCell id="uL5L442wFs0M8TUxu72s-28" value="&#39;Surge&#39;" style="rounded=0;whiteSpace=wrap;html=1;" parent="1" vertex="1">
          <mxGeometry x="316.91" y="-1912" width="53.09" height="40" as="geometry" />
        </mxCell>
        <mxCell id="uL5L442wFs0M8TUxu72s-31" value="End" style="rounded=1;whiteSpace=wrap;html=1;fontSize=12;glass=0;strokeWidth=1;shadow=0;" parent="1" vertex="1">
          <mxGeometry x="372.1600000000001" y="-1721" width="77.5" height="40" as="geometry" />
        </mxCell>
        <mxCell id="uL5L442wFs0M8TUxu72s-32" value="Multi-modal&lt;div&gt;LLM&lt;/div&gt;" style="text;html=1;align=center;verticalAlign=middle;whiteSpace=wrap;rounded=0;" parent="1" vertex="1">
          <mxGeometry x="248" y="-2074" width="70" height="30" as="geometry" />
        </mxCell>
        <mxCell id="uL5L442wFs0M8TUxu72s-69" style="edgeStyle=orthogonalEdgeStyle;rounded=0;orthogonalLoop=1;jettySize=auto;html=1;entryX=0.5;entryY=1;entryDx=0;entryDy=0;fillColor=#dae8fc;strokeColor=#6c8ebf;" parent="1" source="uL5L442wFs0M8TUxu72s-33" target="uL5L442wFs0M8TUxu72s-68" edge="1">
          <mxGeometry relative="1" as="geometry" />
        </mxCell>
        <mxCell id="uL5L442wFs0M8TUxu72s-79" value="Observe" style="edgeLabel;html=1;align=center;verticalAlign=middle;resizable=0;points=[];" parent="uL5L442wFs0M8TUxu72s-69" vertex="1" connectable="0">
          <mxGeometry x="-0.1486" y="-2" relative="1" as="geometry">
            <mxPoint x="23" y="7" as="offset" />
          </mxGeometry>
        </mxCell>
        <mxCell id="uL5L442wFs0M8TUxu72s-33" value="" style="rounded=1;whiteSpace=wrap;html=1;fillColor=#f8cecc;strokeColor=#b85450;fontStyle=1" parent="1" vertex="1">
          <mxGeometry x="730" y="-2117" width="100" height="137" as="geometry" />
        </mxCell>
        <mxCell id="uL5L442wFs0M8TUxu72s-47" style="edgeStyle=orthogonalEdgeStyle;rounded=0;orthogonalLoop=1;jettySize=auto;html=1;exitX=0.5;exitY=1;exitDx=0;exitDy=0;entryX=0.5;entryY=0;entryDx=0;entryDy=0;fillColor=#dae8fc;strokeColor=#6c8ebf;" parent="1" source="uL5L442wFs0M8TUxu72s-41" target="uL5L442wFs0M8TUxu72s-43" edge="1">
          <mxGeometry relative="1" as="geometry" />
        </mxCell>
        <mxCell id="uL5L442wFs0M8TUxu72s-72" value="Yes" style="edgeLabel;html=1;align=center;verticalAlign=middle;resizable=0;points=[];" parent="uL5L442wFs0M8TUxu72s-47" vertex="1" connectable="0">
          <mxGeometry x="-0.1562" relative="1" as="geometry">
            <mxPoint x="14" y="-4" as="offset" />
          </mxGeometry>
        </mxCell>
        <mxCell id="uL5L442wFs0M8TUxu72s-73" style="edgeStyle=orthogonalEdgeStyle;rounded=1;orthogonalLoop=1;jettySize=auto;html=1;exitX=1;exitY=0.5;exitDx=0;exitDy=0;curved=0;fillColor=#dae8fc;strokeColor=#6c8ebf;entryX=0;entryY=0.5;entryDx=0;entryDy=0;" parent="1" source="uL5L442wFs0M8TUxu72s-41" target="hn_gfa2BVQ2jHDe-1uTE-12" edge="1">
          <mxGeometry relative="1" as="geometry">
            <mxPoint x="1070" y="-2070" as="sourcePoint" />
            <Array as="points">
              <mxPoint x="1010" y="-2107" />
              <mxPoint x="1010" y="-2215" />
            </Array>
            <mxPoint x="1020" y="-2130" as="targetPoint" />
          </mxGeometry>
        </mxCell>
        <mxCell id="uL5L442wFs0M8TUxu72s-74" value="No" style="edgeLabel;html=1;align=center;verticalAlign=middle;resizable=0;points=[];" parent="uL5L442wFs0M8TUxu72s-73" vertex="1" connectable="0">
          <mxGeometry x="-0.8036" relative="1" as="geometry">
            <mxPoint x="-6" y="-10" as="offset" />
          </mxGeometry>
        </mxCell>
        <mxCell id="uL5L442wFs0M8TUxu72s-41" value="Obstacle&lt;div&gt;Detection?&lt;/div&gt;" style="rhombus;whiteSpace=wrap;html=1;fillColor=#ffff88;strokeColor=#36393d;rounded=1;" parent="1" vertex="1">
          <mxGeometry x="887" y="-2140" width="100" height="66" as="geometry" />
        </mxCell>
        <mxCell id="uL5L442wFs0M8TUxu72s-43" value="Obstacle-Avoid&lt;div&gt;Navigation&lt;/div&gt;" style="rounded=0;whiteSpace=wrap;html=1;fillColor=#fff2cc;strokeColor=#d6b656;" parent="1" vertex="1">
          <mxGeometry x="887" y="-2055" width="100" height="50" as="geometry" />
        </mxCell>
        <mxCell id="uL5L442wFs0M8TUxu72s-57" style="edgeStyle=orthogonalEdgeStyle;rounded=0;orthogonalLoop=1;jettySize=auto;html=1;entryX=0.5;entryY=0;entryDx=0;entryDy=0;fillColor=#dae8fc;strokeColor=#6c8ebf;exitX=0.5;exitY=1;exitDx=0;exitDy=0;" parent="1" source="hn_gfa2BVQ2jHDe-1uTE-5" target="uL5L442wFs0M8TUxu72s-55" edge="1">
          <mxGeometry relative="1" as="geometry">
            <mxPoint x="1116" y="-2235" as="sourcePoint" />
          </mxGeometry>
        </mxCell>
        <mxCell id="hn_gfa2BVQ2jHDe-1uTE-15" style="edgeStyle=orthogonalEdgeStyle;rounded=0;orthogonalLoop=1;jettySize=auto;html=1;entryX=0.5;entryY=0;entryDx=0;entryDy=0;fillColor=#dae8fc;strokeColor=#6c8ebf;" parent="1" source="uL5L442wFs0M8TUxu72s-55" target="uL5L442wFs0M8TUxu72s-58" edge="1">
          <mxGeometry relative="1" as="geometry" />
        </mxCell>
        <mxCell id="uL5L442wFs0M8TUxu72s-55" value="&lt;b&gt;&lt;i&gt;Multimodal LLM&lt;/i&gt;&lt;/b&gt;&lt;div&gt;With chain-of-thought&lt;/div&gt;" style="rounded=1;whiteSpace=wrap;html=1;fillColor=#fff2cc;strokeColor=#d6b656;" parent="1" vertex="1">
          <mxGeometry x="1040" y="-2199" width="230" height="40" as="geometry" />
        </mxCell>
        <mxCell id="uL5L442wFs0M8TUxu72s-88" style="edgeStyle=orthogonalEdgeStyle;rounded=1;orthogonalLoop=1;jettySize=auto;html=1;entryX=0.5;entryY=0;entryDx=0;entryDy=0;fillColor=#dae8fc;strokeColor=#6c8ebf;exitX=0.5;exitY=1;exitDx=0;exitDy=0;curved=0;" parent="1" source="hn_gfa2BVQ2jHDe-1uTE-12" target="uL5L442wFs0M8TUxu72s-62" edge="1">
          <mxGeometry relative="1" as="geometry">
            <Array as="points" />
            <mxPoint x="1200" y="-2100" as="sourcePoint" />
          </mxGeometry>
        </mxCell>
        <mxCell id="hn_gfa2BVQ2jHDe-1uTE-9" style="edgeStyle=orthogonalEdgeStyle;rounded=1;orthogonalLoop=1;jettySize=auto;html=1;entryX=0.5;entryY=0;entryDx=0;entryDy=0;fillColor=#dae8fc;strokeColor=#6c8ebf;exitX=0.5;exitY=1;exitDx=0;exitDy=0;curved=0;" parent="1" source="hn_gfa2BVQ2jHDe-1uTE-12" target="uL5L442wFs0M8TUxu72s-61" edge="1">
          <mxGeometry relative="1" as="geometry">
            <mxPoint x="1230" y="-2080" as="sourcePoint" />
          </mxGeometry>
        </mxCell>
        <mxCell id="uL5L442wFs0M8TUxu72s-58" value="Decision Decoder" style="rounded=1;whiteSpace=wrap;html=1;fontStyle=1;fillColor=#fff2cc;strokeColor=#d6b656;" parent="1" vertex="1">
          <mxGeometry x="1095" y="-2145" width="120" height="25" as="geometry" />
        </mxCell>
        <mxCell id="uL5L442wFs0M8TUxu72s-61" value="Vision-based&lt;div&gt;Navigation&lt;/div&gt;" style="rounded=0;whiteSpace=wrap;html=1;fillColor=#fff2cc;strokeColor=#d6b656;" parent="1" vertex="1">
          <mxGeometry x="1019.76" y="-2054" width="100" height="50" as="geometry" />
        </mxCell>
        <mxCell id="uL5L442wFs0M8TUxu72s-62" value="Olfaction-based&lt;div&gt;Navigation&lt;/div&gt;" style="rounded=0;whiteSpace=wrap;html=1;fillColor=#fff2cc;strokeColor=#d6b656;" parent="1" vertex="1">
          <mxGeometry x="1166" y="-2055" width="100" height="50" as="geometry" />
        </mxCell>
        <mxCell id="hn_gfa2BVQ2jHDe-1uTE-26" value="" style="edgeStyle=orthogonalEdgeStyle;rounded=0;orthogonalLoop=1;jettySize=auto;html=1;fillColor=#dae8fc;strokeColor=#6c8ebf;" parent="1" source="uL5L442wFs0M8TUxu72s-68" target="uL5L442wFs0M8TUxu72s-80" edge="1">
          <mxGeometry relative="1" as="geometry" />
        </mxCell>
        <mxCell id="hn_gfa2BVQ2jHDe-1uTE-27" value="Yes" style="edgeLabel;html=1;align=center;verticalAlign=middle;resizable=0;points=[];" parent="hn_gfa2BVQ2jHDe-1uTE-26" vertex="1" connectable="0">
          <mxGeometry x="-0.3008" y="-1" relative="1" as="geometry">
            <mxPoint x="9" y="2" as="offset" />
          </mxGeometry>
        </mxCell>
        <mxCell id="hn_gfa2BVQ2jHDe-1uTE-29" value="" style="edgeStyle=orthogonalEdgeStyle;rounded=1;orthogonalLoop=1;jettySize=auto;html=1;entryX=-0.005;entryY=0.468;entryDx=0;entryDy=0;entryPerimeter=0;curved=0;fillColor=#dae8fc;strokeColor=#6c8ebf;" parent="1" source="uL5L442wFs0M8TUxu72s-68" target="uL5L442wFs0M8TUxu72s-34" edge="1">
          <mxGeometry relative="1" as="geometry">
            <Array as="points">
              <mxPoint x="850" y="-2210" />
              <mxPoint x="850" y="-2240" />
            </Array>
          </mxGeometry>
        </mxCell>
        <mxCell id="hn_gfa2BVQ2jHDe-1uTE-30" value="No" style="edgeLabel;html=1;align=center;verticalAlign=middle;resizable=0;points=[];" parent="hn_gfa2BVQ2jHDe-1uTE-29" vertex="1" connectable="0">
          <mxGeometry x="0.0419" y="-1" relative="1" as="geometry">
            <mxPoint x="-11" as="offset" />
          </mxGeometry>
        </mxCell>
        <mxCell id="uL5L442wFs0M8TUxu72s-68" value="Source&lt;div&gt;Confirmation?&lt;/div&gt;" style="rhombus;whiteSpace=wrap;html=1;fillColor=#ffff88;strokeColor=#36393d;rounded=1;" parent="1" vertex="1">
          <mxGeometry x="720" y="-2250" width="120" height="80" as="geometry" />
        </mxCell>
        <mxCell id="uL5L442wFs0M8TUxu72s-76" value="Navigation&amp;nbsp;&lt;span style=&quot;background-color: initial;&quot;&gt;Behaviors&lt;/span&gt;" style="text;html=1;align=center;verticalAlign=middle;whiteSpace=wrap;rounded=0;fontStyle=3" parent="1" vertex="1">
          <mxGeometry x="999.76" y="-2010" width="140" height="40" as="geometry" />
        </mxCell>
        <mxCell id="uL5L442wFs0M8TUxu72s-80" value="Declare Source" style="rounded=1;whiteSpace=wrap;html=1;fillColor=#d5e8d4;strokeColor=#82b366;" parent="1" vertex="1">
          <mxGeometry x="725" y="-2320" width="110" height="40" as="geometry" />
        </mxCell>
        <mxCell id="uL5L442wFs0M8TUxu72s-99" value="Environment" style="text;html=1;align=center;verticalAlign=middle;whiteSpace=wrap;rounded=0;fontStyle=3" parent="1" vertex="1">
          <mxGeometry x="737.5" y="-2120" width="85" height="40" as="geometry" />
        </mxCell>
        <mxCell id="hn_gfa2BVQ2jHDe-1uTE-16" value="Reasoning Module" style="text;html=1;align=center;verticalAlign=middle;whiteSpace=wrap;rounded=0;fontStyle=3" parent="1" vertex="1">
          <mxGeometry x="1100" y="-2320" width="120" height="40" as="geometry" />
        </mxCell>
        <mxCell id="hn_gfa2BVQ2jHDe-1uTE-5" value="" style="rounded=1;whiteSpace=wrap;html=1;fillColor=#fff2cc;strokeColor=#d6b656;" parent="1" vertex="1">
          <mxGeometry x="1040" y="-2286.36" width="226.00000000000003" height="72.8" as="geometry" />
        </mxCell>
        <mxCell id="hn_gfa2BVQ2jHDe-1uTE-2" value="System Prompt" style="rounded=1;whiteSpace=wrap;html=1;fillColor=#ffe6cc;strokeColor=#d79b00;" parent="1" vertex="1">
          <mxGeometry x="1046.6470588235295" y="-2257.24" width="66.47058823529412" height="36.4" as="geometry" />
        </mxCell>
        <mxCell id="hn_gfa2BVQ2jHDe-1uTE-3" value="Olfaction Description" style="rounded=1;whiteSpace=wrap;html=1;fillColor=#ffe6cc;strokeColor=#d79b00;" parent="1" vertex="1">
          <mxGeometry x="1119.764705882353" y="-2257.24" width="66.47058823529412" height="36.4" as="geometry" />
        </mxCell>
        <mxCell id="hn_gfa2BVQ2jHDe-1uTE-4" value="Vision Frame" style="rounded=1;whiteSpace=wrap;html=1;fillColor=#ffe6cc;strokeColor=#d79b00;" parent="1" vertex="1">
          <mxGeometry x="1192.8823529411764" y="-2257.24" width="66.47058823529412" height="36.4" as="geometry" />
        </mxCell>
        <mxCell id="hn_gfa2BVQ2jHDe-1uTE-6" value="Prompt Generation" style="text;html=1;align=center;verticalAlign=middle;whiteSpace=wrap;rounded=0;fontStyle=3" parent="1" vertex="1">
          <mxGeometry x="1086.5294117647059" y="-2290" width="146.2352941176471" height="36.4" as="geometry" />
        </mxCell>
        <mxCell id="uL5L442wFs0M8TUxu72s-34" value="" style="rounded=1;whiteSpace=wrap;html=1;fillColor=#dae8fc;strokeColor=#6c8ebf;" parent="1" vertex="1">
          <mxGeometry x="867" y="-2320" width="140" height="170" as="geometry" />
        </mxCell>
        <mxCell id="uL5L442wFs0M8TUxu72s-37" value="Environment&lt;div&gt;Sensing&lt;/div&gt;" style="text;html=1;align=center;verticalAlign=middle;whiteSpace=wrap;rounded=0;fontStyle=3" parent="1" vertex="1">
          <mxGeometry x="877" y="-2320" width="120" height="40" as="geometry" />
        </mxCell>
        <mxCell id="uL5L442wFs0M8TUxu72s-53" style="edgeStyle=orthogonalEdgeStyle;rounded=1;orthogonalLoop=1;jettySize=auto;html=1;fillColor=#dae8fc;strokeColor=#6c8ebf;entryX=0;entryY=0.5;entryDx=0;entryDy=0;curved=0;" parent="1" source="uL5L442wFs0M8TUxu72s-38" target="hn_gfa2BVQ2jHDe-1uTE-5" edge="1">
          <mxGeometry relative="1" as="geometry">
            <mxPoint x="1037" y="-2260" as="targetPoint" />
          </mxGeometry>
        </mxCell>
        <mxCell id="uL5L442wFs0M8TUxu72s-38" value="Vision Sensing" style="rounded=0;whiteSpace=wrap;html=1;fillColor=#fff2cc;strokeColor=#d6b656;" parent="1" vertex="1">
          <mxGeometry x="877" y="-2280" width="120" height="30" as="geometry" />
        </mxCell>
        <mxCell id="uL5L442wFs0M8TUxu72s-54" style="edgeStyle=orthogonalEdgeStyle;rounded=1;orthogonalLoop=1;jettySize=auto;html=1;entryX=0;entryY=0.5;entryDx=0;entryDy=0;fillColor=#dae8fc;strokeColor=#6c8ebf;curved=0;" parent="1" source="uL5L442wFs0M8TUxu72s-39" target="hn_gfa2BVQ2jHDe-1uTE-5" edge="1">
          <mxGeometry relative="1" as="geometry">
            <mxPoint x="1063" y="-2255" as="targetPoint" />
          </mxGeometry>
        </mxCell>
        <mxCell id="uL5L442wFs0M8TUxu72s-39" value="Olfaction Sensing" style="rounded=0;whiteSpace=wrap;html=1;fillColor=#fff2cc;strokeColor=#d6b656;" parent="1" vertex="1">
          <mxGeometry x="877" y="-2240" width="120" height="30" as="geometry" />
        </mxCell>
        <mxCell id="uL5L442wFs0M8TUxu72s-46" style="edgeStyle=orthogonalEdgeStyle;rounded=0;orthogonalLoop=1;jettySize=auto;html=1;exitX=0.5;exitY=1;exitDx=0;exitDy=0;entryX=0.5;entryY=0;entryDx=0;entryDy=0;fillColor=#dae8fc;strokeColor=#6c8ebf;curved=0;" parent="1" source="uL5L442wFs0M8TUxu72s-40" target="uL5L442wFs0M8TUxu72s-41" edge="1">
          <mxGeometry relative="1" as="geometry">
            <Array as="points">
              <mxPoint x="937" y="-2150" />
              <mxPoint x="937" y="-2150" />
            </Array>
          </mxGeometry>
        </mxCell>
        <mxCell id="uL5L442wFs0M8TUxu72s-40" value="Distance Sensing" style="rounded=0;whiteSpace=wrap;html=1;fillColor=#fff2cc;strokeColor=#d6b656;" parent="1" vertex="1">
          <mxGeometry x="877" y="-2200" width="120" height="30" as="geometry" />
        </mxCell>
        <mxCell id="QUDrHv5BSyo5xy4uSFVe-5" style="edgeStyle=orthogonalEdgeStyle;rounded=0;orthogonalLoop=1;jettySize=auto;html=1;entryX=0.5;entryY=0;entryDx=0;entryDy=0;exitX=0.556;exitY=1.05;exitDx=0;exitDy=0;exitPerimeter=0;" parent="1" source="QUDrHv5BSyo5xy4uSFVe-1" target="uL5L442wFs0M8TUxu72s-22" edge="1">
          <mxGeometry relative="1" as="geometry">
            <Array as="points">
              <mxPoint x="281" y="-1850" />
              <mxPoint x="411" y="-1850" />
            </Array>
          </mxGeometry>
        </mxCell>
        <mxCell id="QUDrHv5BSyo5xy4uSFVe-1" value="&#39;Casting&#39;" style="rounded=0;whiteSpace=wrap;html=1;" parent="1" vertex="1">
          <mxGeometry x="248" y="-1912" width="59.91" height="40" as="geometry" />
        </mxCell>
        <mxCell id="QUDrHv5BSyo5xy4uSFVe-3" style="edgeStyle=orthogonalEdgeStyle;rounded=0;orthogonalLoop=1;jettySize=auto;html=1;entryX=0.453;entryY=0.004;entryDx=0;entryDy=0;entryPerimeter=0;exitX=0;exitY=0.5;exitDx=0;exitDy=0;" parent="1" source="uL5L442wFs0M8TUxu72s-17" target="QUDrHv5BSyo5xy4uSFVe-1" edge="1">
          <mxGeometry relative="1" as="geometry">
            <Array as="points">
              <mxPoint x="246" y="-1930" />
              <mxPoint x="275" y="-1930" />
            </Array>
          </mxGeometry>
        </mxCell>
        <mxCell id="QUDrHv5BSyo5xy4uSFVe-4" value="No" style="edgeLabel;html=1;align=center;verticalAlign=middle;resizable=0;points=[];" parent="QUDrHv5BSyo5xy4uSFVe-3" vertex="1" connectable="0">
          <mxGeometry x="0.2593" relative="1" as="geometry">
            <mxPoint y="-10" as="offset" />
          </mxGeometry>
        </mxCell>
        <mxCell id="FBccBt7tFnC_Dwte7IGF-34" style="edgeStyle=orthogonalEdgeStyle;rounded=0;orthogonalLoop=1;jettySize=auto;html=1;entryX=0.5;entryY=0;entryDx=0;entryDy=0;" parent="1" source="FBccBt7tFnC_Dwte7IGF-35" target="FBccBt7tFnC_Dwte7IGF-45" edge="1">
          <mxGeometry relative="1" as="geometry">
            <mxPoint x="880.9099999999999" y="-1792" as="targetPoint" />
          </mxGeometry>
        </mxCell>
        <mxCell id="FBccBt7tFnC_Dwte7IGF-35" value="Start" style="rounded=1;whiteSpace=wrap;html=1;fontSize=12;glass=0;strokeWidth=1;shadow=0;" parent="1" vertex="1">
          <mxGeometry x="792.7500000000001" y="-1738" width="77.5" height="20" as="geometry" />
        </mxCell>
        <mxCell id="SXkO-10vyi6y0WSXljDI-3" style="edgeStyle=orthogonalEdgeStyle;rounded=0;orthogonalLoop=1;jettySize=auto;html=1;entryX=0.5;entryY=0;entryDx=0;entryDy=0;" parent="1" source="FBccBt7tFnC_Dwte7IGF-45" target="FBccBt7tFnC_Dwte7IGF-56" edge="1">
          <mxGeometry relative="1" as="geometry" />
        </mxCell>
        <mxCell id="SXkO-10vyi6y0WSXljDI-10" value="Yes" style="edgeLabel;html=1;align=center;verticalAlign=middle;resizable=0;points=[];" parent="SXkO-10vyi6y0WSXljDI-3" vertex="1" connectable="0">
          <mxGeometry x="-0.6013" relative="1" as="geometry">
            <mxPoint x="-13" y="-8" as="offset" />
          </mxGeometry>
        </mxCell>
        <mxCell id="SXkO-10vyi6y0WSXljDI-4" style="edgeStyle=orthogonalEdgeStyle;rounded=0;orthogonalLoop=1;jettySize=auto;html=1;entryX=0.5;entryY=0;entryDx=0;entryDy=0;exitX=0;exitY=0.5;exitDx=0;exitDy=0;" parent="1" source="FBccBt7tFnC_Dwte7IGF-45" target="FBccBt7tFnC_Dwte7IGF-47" edge="1">
          <mxGeometry relative="1" as="geometry" />
        </mxCell>
        <mxCell id="SXkO-10vyi6y0WSXljDI-15" value="No" style="edgeLabel;html=1;align=center;verticalAlign=middle;resizable=0;points=[];" parent="SXkO-10vyi6y0WSXljDI-4" vertex="1" connectable="0">
          <mxGeometry x="-0.4703" y="1" relative="1" as="geometry">
            <mxPoint y="8" as="offset" />
          </mxGeometry>
        </mxCell>
        <mxCell id="FBccBt7tFnC_Dwte7IGF-45" value="Plume&lt;br&gt;&amp;nbsp;Detected&lt;br&gt;Visually?" style="rhombus;whiteSpace=wrap;html=1;" parent="1" vertex="1">
          <mxGeometry x="780.75" y="-1696" width="101.5" height="70" as="geometry" />
        </mxCell>
        <mxCell id="SXkO-10vyi6y0WSXljDI-5" style="edgeStyle=orthogonalEdgeStyle;rounded=0;orthogonalLoop=1;jettySize=auto;html=1;exitX=0.5;exitY=1;exitDx=0;exitDy=0;entryX=0.5;entryY=0;entryDx=0;entryDy=0;" parent="1" source="FBccBt7tFnC_Dwte7IGF-47" target="FBccBt7tFnC_Dwte7IGF-58" edge="1">
          <mxGeometry relative="1" as="geometry" />
        </mxCell>
        <mxCell id="SXkO-10vyi6y0WSXljDI-12" value="Yes" style="edgeLabel;html=1;align=center;verticalAlign=middle;resizable=0;points=[];" parent="SXkO-10vyi6y0WSXljDI-5" vertex="1" connectable="0">
          <mxGeometry x="-0.5944" y="-2" relative="1" as="geometry">
            <mxPoint x="-10" y="1" as="offset" />
          </mxGeometry>
        </mxCell>
        <mxCell id="SXkO-10vyi6y0WSXljDI-6" style="edgeStyle=orthogonalEdgeStyle;rounded=0;orthogonalLoop=1;jettySize=auto;html=1;exitX=0;exitY=0.5;exitDx=0;exitDy=0;entryX=0.5;entryY=0;entryDx=0;entryDy=0;" parent="1" source="FBccBt7tFnC_Dwte7IGF-47" target="FBccBt7tFnC_Dwte7IGF-62" edge="1">
          <mxGeometry relative="1" as="geometry" />
        </mxCell>
        <mxCell id="SXkO-10vyi6y0WSXljDI-14" value="No" style="edgeLabel;html=1;align=center;verticalAlign=middle;resizable=0;points=[];" parent="SXkO-10vyi6y0WSXljDI-6" vertex="1" connectable="0">
          <mxGeometry x="-0.435" y="2" relative="1" as="geometry">
            <mxPoint x="16" y="7" as="offset" />
          </mxGeometry>
        </mxCell>
        <mxCell id="FBccBt7tFnC_Dwte7IGF-47" value="Sufficient&lt;div&gt;Plume&lt;br&gt;Detected?&lt;/div&gt;" style="rhombus;whiteSpace=wrap;html=1;" parent="1" vertex="1">
          <mxGeometry x="691.66" y="-1640" width="101.09" height="81" as="geometry" />
        </mxCell>
        <mxCell id="SXkO-10vyi6y0WSXljDI-8" style="edgeStyle=orthogonalEdgeStyle;rounded=0;orthogonalLoop=1;jettySize=auto;html=1;exitX=0.5;exitY=1;exitDx=0;exitDy=0;entryX=0.5;entryY=0;entryDx=0;entryDy=0;" parent="1" source="FBccBt7tFnC_Dwte7IGF-58" target="FBccBt7tFnC_Dwte7IGF-59" edge="1">
          <mxGeometry relative="1" as="geometry">
            <mxPoint x="742.1428571428571" y="-1470" as="targetPoint" />
          </mxGeometry>
        </mxCell>
        <mxCell id="FBccBt7tFnC_Dwte7IGF-58" value="Follow&amp;nbsp;&lt;span style=&quot;background-color: initial;&quot;&gt;Odor&lt;/span&gt;&lt;div&gt;&lt;span style=&quot;background-color: initial;&quot;&gt;Behavior&lt;/span&gt;&lt;/div&gt;" style="rounded=0;whiteSpace=wrap;html=1;" parent="1" vertex="1">
          <mxGeometry x="708.66" y="-1532" width="67.09" height="40" as="geometry" />
        </mxCell>
        <mxCell id="FBccBt7tFnC_Dwte7IGF-59" value="End" style="rounded=1;whiteSpace=wrap;html=1;fontSize=12;glass=0;strokeWidth=1;shadow=0;" parent="1" vertex="1">
          <mxGeometry x="708.66" y="-1464" width="77.5" height="22" as="geometry" />
        </mxCell>
        <mxCell id="SXkO-10vyi6y0WSXljDI-7" style="edgeStyle=orthogonalEdgeStyle;rounded=0;orthogonalLoop=1;jettySize=auto;html=1;entryX=0.5;entryY=0;entryDx=0;entryDy=0;exitX=0.5;exitY=1;exitDx=0;exitDy=0;" parent="1" source="FBccBt7tFnC_Dwte7IGF-62" target="FBccBt7tFnC_Dwte7IGF-59" edge="1">
          <mxGeometry relative="1" as="geometry">
            <Array as="points">
              <mxPoint x="652" y="-1480" />
              <mxPoint x="747" y="-1480" />
            </Array>
          </mxGeometry>
        </mxCell>
        <mxCell id="FBccBt7tFnC_Dwte7IGF-62" value="Find&amp;nbsp;&lt;span style=&quot;background-color: initial;&quot;&gt;Odor Behavior&lt;/span&gt;" style="rounded=0;whiteSpace=wrap;html=1;" parent="1" vertex="1">
          <mxGeometry x="620" y="-1532" width="62.91" height="40" as="geometry" />
        </mxCell>
        <mxCell id="SXkO-10vyi6y0WSXljDI-9" style="edgeStyle=orthogonalEdgeStyle;rounded=0;orthogonalLoop=1;jettySize=auto;html=1;entryX=0.5;entryY=0;entryDx=0;entryDy=0;exitX=0.5;exitY=1;exitDx=0;exitDy=0;" parent="1" source="FBccBt7tFnC_Dwte7IGF-56" target="FBccBt7tFnC_Dwte7IGF-59" edge="1">
          <mxGeometry relative="1" as="geometry">
            <Array as="points">
              <mxPoint x="832" y="-1480" />
              <mxPoint x="747" y="-1480" />
            </Array>
          </mxGeometry>
        </mxCell>
        <mxCell id="FBccBt7tFnC_Dwte7IGF-56" value="Vision-based Behaviors" style="rounded=0;whiteSpace=wrap;html=1;" parent="1" vertex="1">
          <mxGeometry x="792" y="-1532" width="79" height="40" as="geometry" />
        </mxCell>
        <mxCell id="8HVqX9hFjRQ2Z3jKDj6G-3" style="edgeStyle=orthogonalEdgeStyle;rounded=0;orthogonalLoop=1;jettySize=auto;html=1;entryX=0.5;entryY=0;entryDx=0;entryDy=0;" parent="1" source="8HVqX9hFjRQ2Z3jKDj6G-7" target="8HVqX9hFjRQ2Z3jKDj6G-19" edge="1">
          <mxGeometry relative="1" as="geometry" />
        </mxCell>
        <mxCell id="8HVqX9hFjRQ2Z3jKDj6G-4" value="Yes" style="edgeLabel;html=1;align=center;verticalAlign=middle;resizable=0;points=[];" parent="8HVqX9hFjRQ2Z3jKDj6G-3" vertex="1" connectable="0">
          <mxGeometry x="-0.6013" relative="1" as="geometry">
            <mxPoint x="-13" y="-8" as="offset" />
          </mxGeometry>
        </mxCell>
        <mxCell id="8HVqX9hFjRQ2Z3jKDj6G-5" style="edgeStyle=orthogonalEdgeStyle;rounded=0;orthogonalLoop=1;jettySize=auto;html=1;entryX=0.5;entryY=0;entryDx=0;entryDy=0;exitX=0;exitY=0.5;exitDx=0;exitDy=0;" parent="1" source="8HVqX9hFjRQ2Z3jKDj6G-7" target="8HVqX9hFjRQ2Z3jKDj6G-12" edge="1">
          <mxGeometry relative="1" as="geometry" />
        </mxCell>
        <mxCell id="8HVqX9hFjRQ2Z3jKDj6G-6" value="No" style="edgeLabel;html=1;align=center;verticalAlign=middle;resizable=0;points=[];" parent="8HVqX9hFjRQ2Z3jKDj6G-5" vertex="1" connectable="0">
          <mxGeometry x="-0.4703" y="1" relative="1" as="geometry">
            <mxPoint y="8" as="offset" />
          </mxGeometry>
        </mxCell>
        <mxCell id="8HVqX9hFjRQ2Z3jKDj6G-7" value="Plume&lt;br&gt;&amp;nbsp;Detected&lt;br&gt;Visually?" style="rhombus;whiteSpace=wrap;html=1;" parent="1" vertex="1">
          <mxGeometry x="1140.75" y="-1668" width="101.5" height="70" as="geometry" />
        </mxCell>
        <mxCell id="8HVqX9hFjRQ2Z3jKDj6G-8" style="edgeStyle=orthogonalEdgeStyle;rounded=0;orthogonalLoop=1;jettySize=auto;html=1;exitX=0.5;exitY=1;exitDx=0;exitDy=0;entryX=0.5;entryY=0;entryDx=0;entryDy=0;" parent="1" source="8HVqX9hFjRQ2Z3jKDj6G-12" target="8HVqX9hFjRQ2Z3jKDj6G-14" edge="1">
          <mxGeometry relative="1" as="geometry" />
        </mxCell>
        <mxCell id="8HVqX9hFjRQ2Z3jKDj6G-9" value="Yes" style="edgeLabel;html=1;align=center;verticalAlign=middle;resizable=0;points=[];" parent="8HVqX9hFjRQ2Z3jKDj6G-8" vertex="1" connectable="0">
          <mxGeometry x="-0.5944" y="-2" relative="1" as="geometry">
            <mxPoint x="-10" y="1" as="offset" />
          </mxGeometry>
        </mxCell>
        <mxCell id="8HVqX9hFjRQ2Z3jKDj6G-10" style="edgeStyle=orthogonalEdgeStyle;rounded=0;orthogonalLoop=1;jettySize=auto;html=1;exitX=0;exitY=0.5;exitDx=0;exitDy=0;entryX=0.5;entryY=0;entryDx=0;entryDy=0;" parent="1" source="8HVqX9hFjRQ2Z3jKDj6G-12" target="8HVqX9hFjRQ2Z3jKDj6G-17" edge="1">
          <mxGeometry relative="1" as="geometry" />
        </mxCell>
        <mxCell id="8HVqX9hFjRQ2Z3jKDj6G-11" value="No" style="edgeLabel;html=1;align=center;verticalAlign=middle;resizable=0;points=[];" parent="8HVqX9hFjRQ2Z3jKDj6G-10" vertex="1" connectable="0">
          <mxGeometry x="-0.435" y="2" relative="1" as="geometry">
            <mxPoint x="16" y="7" as="offset" />
          </mxGeometry>
        </mxCell>
        <mxCell id="8HVqX9hFjRQ2Z3jKDj6G-12" value="Sufficient&lt;div&gt;Plume&lt;br&gt;Detected?&lt;/div&gt;" style="rhombus;whiteSpace=wrap;html=1;" parent="1" vertex="1">
          <mxGeometry x="1051.6599999999999" y="-1612" width="101.09" height="81" as="geometry" />
        </mxCell>
        <mxCell id="8HVqX9hFjRQ2Z3jKDj6G-14" value="Follow&amp;nbsp;&lt;span style=&quot;background-color: initial;&quot;&gt;Odor&lt;/span&gt;&lt;div&gt;&lt;span style=&quot;background-color: initial;&quot;&gt;Behavior&lt;/span&gt;&lt;/div&gt;" style="rounded=0;whiteSpace=wrap;html=1;" parent="1" vertex="1">
          <mxGeometry x="1064.01" y="-1504" width="75.75" height="40" as="geometry" />
        </mxCell>
        <mxCell id="8HVqX9hFjRQ2Z3jKDj6G-17" value="Find&amp;nbsp;&lt;span style=&quot;background-color: initial;&quot;&gt;Odor Behavior&lt;/span&gt;" style="rounded=0;whiteSpace=wrap;html=1;" parent="1" vertex="1">
          <mxGeometry x="980" y="-1504" width="62.91" height="40" as="geometry" />
        </mxCell>
        <mxCell id="8HVqX9hFjRQ2Z3jKDj6G-19" value="Vision-based Behaviors" style="rounded=0;whiteSpace=wrap;html=1;" parent="1" vertex="1">
          <mxGeometry x="1152" y="-1504" width="79" height="40" as="geometry" />
        </mxCell>
        <mxCell id="8HVqX9hFjRQ2Z3jKDj6G-30" style="edgeStyle=orthogonalEdgeStyle;rounded=0;orthogonalLoop=1;jettySize=auto;html=1;entryX=0.5;entryY=0;entryDx=0;entryDy=0;" parent="1" source="8HVqX9hFjRQ2Z3jKDj6G-20" target="8HVqX9hFjRQ2Z3jKDj6G-7" edge="1">
          <mxGeometry relative="1" as="geometry" />
        </mxCell>
        <mxCell id="8HVqX9hFjRQ2Z3jKDj6G-20" value="Chemical Concentration and Visual Frame" style="rounded=1;whiteSpace=wrap;html=1;" parent="1" vertex="1">
          <mxGeometry x="1141.025" y="-1740" width="100.95" height="53" as="geometry" />
        </mxCell>
      </root>
    </mxGraphModel>
  </diagram>
</mxfile>
